<?xml version="1.0" encoding="UTF-8"?>
<svg width="800" height="600" xmlns="http://www.w3.org/2000/svg">
    <!-- Entities -->
    <!-- Usuarios -->
    <rect x="50" y="50" width="200" height="150" rx="10" fill="#e6f3ff" stroke="#0B0B45" stroke-width="2"/>
    <text x="150" y="85" text-anchor="middle" font-family="Arial" font-size="16" font-weight="bold" fill="#0B0B45">Usuarios</text>
    <line x1="60" y1="100" x2="240" y2="100" stroke="#0B0B45" stroke-width="1"/>
    <text x="70" y="125" font-family="Arial" font-size="12" fill="#333">- id (PK)</text>
    <text x="70" y="145" font-family="Arial" font-size="12" fill="#333">- nombre</text>
    <text x="70" y="165" font-family="Arial" font-size="12" fill="#333">- email</text>
    <text x="70" y="185" font-family="Arial" font-size="12" fill="#333">- rol</text>

    <!-- Citas -->
    <rect x="350" y="50" width="200" height="150" rx="10" fill="#e6f3ff" stroke="#0B0B45" stroke-width="2"/>
    <text x="450" y="85" text-anchor="middle" font-family="Arial" font-size="16" font-weight="bold" fill="#0B0B45">Citas</text>
    <line x1="360" y1="100" x2="540" y2="100" stroke="#0B0B45" stroke-width="1"/>
    <text x="370" y="125" font-family="Arial" font-size="12" fill="#333">- id (PK)</text>
    <text x="370" y="145" font-family="Arial" font-size="12" fill="#333">- fecha_hora</text>
    <text x="370" y="165" font-family="Arial" font-size="12" fill="#333">- estado</text>
    <text x="370" y="185" font-family="Arial" font-size="12" fill="#333">- tipo_tratamiento</text>

    <!-- Historial -->
    <rect x="200" y="300" width="200" height="150" rx="10" fill="#e6f3ff" stroke="#0B0B45" stroke-width="2"/>
    <text x="300" y="335" text-anchor="middle" font-family="Arial" font-size="16" font-weight="bold" fill="#0B0B45">Historial</text>
    <line x1="210" y1="350" x2="390" y2="350" stroke="#0B0B45" stroke-width="1"/>
    <text x="220" y="375" font-family="Arial" font-size="12" fill="#333">- id (PK)</text>
    <text x="220" y="395" font-family="Arial" font-size="12" fill="#333">- diagnostico</text>
    <text x="220" y="415" font-family="Arial" font-size="12" fill="#333">- tratamiento</text>
    <text x="220" y="435" font-family="Arial" font-size="12" fill="#333">- fecha</text>

    <!-- Relationships -->
    <line x1="250" y1="125" x2="350" y2="125" stroke="#0B0B45" stroke-width="2"/>
    <text x="300" y="115" text-anchor="middle" font-family="Arial" font-size="12" fill="#0B0B45">tiene</text>
    
    <line x1="450" y1="200" x2="300" y2="300" stroke="#0B0B45" stroke-width="2"/>
    <text x="400" y="250" text-anchor="middle" font-family="Arial" font-size="12" fill="#0B0B45">genera</text>
    
    <line x1="150" y1="200" x2="200" y2="300" stroke="#0B0B45" stroke-width="2"/>
    <text x="150" y="250" text-anchor="middle" font-family="Arial" font-size="12" fill="#0B0B45">posee</text>

    <!-- Cardinality -->
    <text x="235" y="120" text-anchor="end" font-family="Arial" font-size="12" fill="#0B0B45">1</text>
    <text x="365" y="120" text-anchor="start" font-family="Arial" font-size="12" fill="#0B0B45">N</text>
</svg>