<?xml version="1.0" encoding="UTF-8"?>
<svg width="800" height="400" xmlns="http://www.w3.org/2000/svg">
    <!-- Background gradient -->
    <defs>
        <linearGradient id="grad1" x1="0%" y1="0%" x2="100%" y2="100%">
            <stop offset="0%" style="stop-color:#e6f3ff;stop-opacity:1" />
            <stop offset="100%" style="stop-color:#f0f9ff;stop-opacity:1" />
        </linearGradient>
    </defs>
    <rect width="100%" height="100%" fill="url(#grad1)"/>
    
    <!-- Molecular Structure -->
    <!-- O3 Molecules -->
    <g opacity="0.6">
        <!-- Molecule 1 -->
        <circle cx="100" cy="100" r="20" fill="#0B0B45" opacity="0.2"/>
        <circle cx="140" cy="100" r="20" fill="#0B0B45" opacity="0.2"/>
        <circle cx="120" cy="70" r="20" fill="#0B0B45" opacity="0.2"/>
        <line x1="100" y1="100" x2="140" y2="100" stroke="#0B0B45" stroke-width="2" opacity="0.3"/>
        <line x1="120" y1="70" x2="120" y2="100" stroke="#0B0B45" stroke-width="2" opacity="0.3"/>

        <!-- Molecule 2 -->
        <circle cx="600" cy="200" r="20" fill="#0B0B45" opacity="0.2"/>
        <circle cx="640" cy="200" r="20" fill="#0B0B45" opacity="0.2"/>
        <circle cx="620" cy="170" r="20" fill="#0B0B45" opacity="0.2"/>
        <line x1="600" y1="200" x2="640" y2="200" stroke="#0B0B45" stroke-width="2" opacity="0.3"/>
        <line x1="620" y1="170" x2="620" y2="200" stroke="#0B0B45" stroke-width="2" opacity="0.3"/>

        <!-- Molecule 3 -->
        <circle cx="300" cy="300" r="20" fill="#0B0B45" opacity="0.2"/>
        <circle cx="340" cy="300" r="20" fill="#0B0B45" opacity="0.2"/>
        <circle cx="320" cy="270" r="20" fill="#0B0B45" opacity="0.2"/>
        <line x1="300" y1="300" x2="340" y2="300" stroke="#0B0B45" stroke-width="2" opacity="0.3"/>
        <line x1="320" y1="270" x2="320" y2="300" stroke="#0B0B45" stroke-width="2" opacity="0.3"/>
    </g>

    <!-- Connecting Lines -->
    <path d="M140,100 Q 300,150 300,300" stroke="#0B0B45" stroke-width="1" fill="none" opacity="0.2"/>
    <path d="M340,300 Q 500,250 600,200" stroke="#0B0B45" stroke-width="1" fill="none" opacity="0.2"/>
</svg>